# https://github.com/mikedh/trimesh

o geometry_0
v -1650.00000000 -900.00000000 0.00000000 0.31372549 0.35294118 0.43137255
v -1650.00000000 -900.00000000 100.00000000 0.31372549 0.35294118 0.43137255
v -1650.00000000 -850.00000000 0.00000000 0.31372549 0.35294118 0.43137255
v -1650.00000000 -850.00000000 100.00000000 0.31372549 0.35294118 0.43137255
v 1650.00000000 -900.00000000 0.00000000 0.31372549 0.35294118 0.43137255
v 1650.00000000 -900.00000000 100.00000000 0.31372549 0.35294118 0.43137255
v 1650.00000000 -850.00000000 0.00000000 0.31372549 0.35294118 0.43137255
v 1650.00000000 -850.00000000 100.00000000 0.31372549 0.35294118 0.43137255
f 2 4 1
f 5 2 1
f 1 4 3
f 3 5 1
f 2 8 4
f 6 2 5
f 6 8 2
f 4 8 3
f 7 5 3
f 3 8 7
f 7 6 5
f 8 6 7

o geometry_1
v -1650.00000000 850.00000000 0.00000000 0.31372549 0.35294118 0.43137255
v -1650.00000000 850.00000000 100.00000000 0.31372549 0.35294118 0.43137255
v -1650.00000000 900.00000000 0.00000000 0.31372549 0.35294118 0.43137255
v -1650.00000000 900.00000000 100.00000000 0.31372549 0.35294118 0.43137255
v 1650.00000000 850.00000000 0.00000000 0.31372549 0.35294118 0.43137255
v 1650.00000000 850.00000000 100.00000000 0.31372549 0.35294118 0.43137255
v 1650.00000000 900.00000000 0.00000000 0.31372549 0.35294118 0.43137255
v 1650.00000000 900.00000000 100.00000000 0.31372549 0.35294118 0.43137255
f 10 12 9
f 13 10 9
f 9 12 11
f 11 13 9
f 10 16 12
f 14 10 13
f 14 16 10
f 12 16 11
f 15 13 11
f 11 16 15
f 15 14 13
f 16 14 15

o geometry_2
v -1325.00000000 -850.00000000 0.00000000 0.39215686 0.43137255 0.50980392
v -1325.00000000 -850.00000000 100.00000000 0.39215686 0.43137255 0.50980392
v -1325.00000000 850.00000000 0.00000000 0.39215686 0.43137255 0.50980392
v -1325.00000000 850.00000000 100.00000000 0.39215686 0.43137255 0.50980392
v -1275.00000000 -850.00000000 0.00000000 0.39215686 0.43137255 0.50980392
v -1275.00000000 -850.00000000 100.00000000 0.39215686 0.43137255 0.50980392
v -1275.00000000 850.00000000 0.00000000 0.39215686 0.43137255 0.50980392
v -1275.00000000 850.00000000 100.00000000 0.39215686 0.43137255 0.50980392
f 18 20 17
f 21 18 17
f 17 20 19
f 19 21 17
f 18 24 20
f 22 18 21
f 22 24 18
f 20 24 19
f 23 21 19
f 19 24 23
f 23 22 21
f 24 22 23

o geometry_3
v -525.00000000 -850.00000000 0.00000000 0.39215686 0.43137255 0.50980392
v -525.00000000 -850.00000000 100.00000000 0.39215686 0.43137255 0.50980392
v -525.00000000 850.00000000 0.00000000 0.39215686 0.43137255 0.50980392
v -525.00000000 850.00000000 100.00000000 0.39215686 0.43137255 0.50980392
v -475.00000000 -850.00000000 0.00000000 0.39215686 0.43137255 0.50980392
v -475.00000000 -850.00000000 100.00000000 0.39215686 0.43137255 0.50980392
v -475.00000000 850.00000000 0.00000000 0.39215686 0.43137255 0.50980392
v -475.00000000 850.00000000 100.00000000 0.39215686 0.43137255 0.50980392
f 26 28 25
f 29 26 25
f 25 28 27
f 27 29 25
f 26 32 28
f 30 26 29
f 30 32 26
f 28 32 27
f 31 29 27
f 27 32 31
f 31 30 29
f 32 30 31

o geometry_4
v 475.00000000 -850.00000000 0.00000000 0.39215686 0.43137255 0.50980392
v 475.00000000 -850.00000000 100.00000000 0.39215686 0.43137255 0.50980392
v 475.00000000 850.00000000 0.00000000 0.39215686 0.43137255 0.50980392
v 475.00000000 850.00000000 100.00000000 0.39215686 0.43137255 0.50980392
v 525.00000000 -850.00000000 0.00000000 0.39215686 0.43137255 0.50980392
v 525.00000000 -850.00000000 100.00000000 0.39215686 0.43137255 0.50980392
v 525.00000000 850.00000000 0.00000000 0.39215686 0.43137255 0.50980392
v 525.00000000 850.00000000 100.00000000 0.39215686 0.43137255 0.50980392
f 34 36 33
f 37 34 33
f 33 36 35
f 35 37 33
f 34 40 36
f 38 34 37
f 38 40 34
f 36 40 35
f 39 37 35
f 35 40 39
f 39 38 37
f 40 38 39

o geometry_5
v 1275.00000000 -850.00000000 0.00000000 0.39215686 0.43137255 0.50980392
v 1275.00000000 -850.00000000 100.00000000 0.39215686 0.43137255 0.50980392
v 1275.00000000 850.00000000 0.00000000 0.39215686 0.43137255 0.50980392
v 1275.00000000 850.00000000 100.00000000 0.39215686 0.43137255 0.50980392
v 1325.00000000 -850.00000000 0.00000000 0.39215686 0.43137255 0.50980392
v 1325.00000000 -850.00000000 100.00000000 0.39215686 0.43137255 0.50980392
v 1325.00000000 850.00000000 0.00000000 0.39215686 0.43137255 0.50980392
v 1325.00000000 850.00000000 100.00000000 0.39215686 0.43137255 0.50980392
f 42 44 41
f 45 42 41
f 41 44 43
f 43 45 41
f 42 48 44
f 46 42 45
f 46 48 42
f 44 48 43
f 47 45 43
f 43 48 47
f 47 46 45
f 48 46 47

o geometry_6
v -800.00000000 -550.00000000 0.00000000 0.70588235 0.74509804 0.78431373
v -800.00000000 -550.00000000 150.00000000 0.70588235 0.74509804 0.78431373
v -800.00000000 550.00000000 0.00000000 0.70588235 0.74509804 0.78431373
v -800.00000000 550.00000000 150.00000000 0.70588235 0.74509804 0.78431373
v 800.00000000 -550.00000000 0.00000000 0.70588235 0.74509804 0.78431373
v 800.00000000 -550.00000000 150.00000000 0.70588235 0.74509804 0.78431373
v 800.00000000 550.00000000 0.00000000 0.70588235 0.74509804 0.78431373
v 800.00000000 550.00000000 150.00000000 0.70588235 0.74509804 0.78431373
f 50 52 49
f 53 50 49
f 49 52 51
f 51 53 49
f 50 56 52
f 54 50 53
f 54 56 50
f 52 56 51
f 55 53 51
f 51 56 55
f 55 54 53
f 56 54 55

o geometry_7
v -1425.00000000 225.00000000 100.00000000 0.86274510 0.47058824 0.15686275
v -1245.00000000 225.00000000 100.00000000 0.86274510 0.47058824 0.15686275
v -1245.00000000 -225.00000000 100.00000000 0.86274510 0.47058824 0.15686275
v -1425.00000000 -225.00000000 100.00000000 0.86274510 0.47058824 0.15686275
v -1248.45864953 225.00000000 135.11625796 0.86274510 0.47058824 0.15686275
v -1248.45864953 -225.00000000 135.11625796 0.86274510 0.47058824 0.15686275
v -1258.70168415 225.00000000 168.88301783 0.86274510 0.47058824 0.15686275
v -1258.70168415 -225.00000000 168.88301783 0.86274510 0.47058824 0.15686275
v -1275.33546979 225.00000000 200.00264194 0.86274510 0.47058824 0.15686275
v -1275.33546979 -225.00000000 200.00264194 0.86274510 0.47058824 0.15686275
v -1297.72077939 225.00000000 227.27922061 0.86274510 0.47058824 0.15686275
v -1297.72077939 -225.00000000 227.27922061 0.86274510 0.47058824 0.15686275
v -1324.99735806 225.00000000 249.66453021 0.86274510 0.47058824 0.15686275
v -1324.99735806 -225.00000000 249.66453021 0.86274510 0.47058824 0.15686275
v -1356.11698217 225.00000000 266.29831585 0.86274510 0.47058824 0.15686275
v -1356.11698217 -225.00000000 266.29831585 0.86274510 0.47058824 0.15686275
v -1389.88374204 225.00000000 276.54135047 0.86274510 0.47058824 0.15686275
v -1389.88374204 -225.00000000 276.54135047 0.86274510 0.47058824 0.15686275
v -1425.00000000 225.00000000 280.00000000 0.86274510 0.47058824 0.15686275
v -1425.00000000 -225.00000000 280.00000000 0.86274510 0.47058824 0.15686275
v -1460.11625796 225.00000000 276.54135047 0.86274510 0.47058824 0.15686275
v -1460.11625796 -225.00000000 276.54135047 0.86274510 0.47058824 0.15686275
v -1493.88301783 225.00000000 266.29831585 0.86274510 0.47058824 0.15686275
v -1493.88301783 -225.00000000 266.29831585 0.86274510 0.47058824 0.15686275
v -1525.00264194 225.00000000 249.66453021 0.86274510 0.47058824 0.15686275
v -1525.00264194 -225.00000000 249.66453021 0.86274510 0.47058824 0.15686275
v -1552.27922061 225.00000000 227.27922061 0.86274510 0.47058824 0.15686275
v -1552.27922061 -225.00000000 227.27922061 0.86274510 0.47058824 0.15686275
v -1574.66453021 225.00000000 200.00264194 0.86274510 0.47058824 0.15686275
v -1574.66453021 -225.00000000 200.00264194 0.86274510 0.47058824 0.15686275
v -1591.29831585 225.00000000 168.88301783 0.86274510 0.47058824 0.15686275
v -1591.29831585 -225.00000000 168.88301783 0.86274510 0.47058824 0.15686275
v -1601.54135047 225.00000000 135.11625796 0.86274510 0.47058824 0.15686275
v -1601.54135047 -225.00000000 135.11625796 0.86274510 0.47058824 0.15686275
v -1605.00000000 225.00000000 100.00000000 0.86274510 0.47058824 0.15686275
v -1605.00000000 -225.00000000 100.00000000 0.86274510 0.47058824 0.15686275
v -1601.54135047 225.00000000 64.88374204 0.86274510 0.47058824 0.15686275
v -1601.54135047 -225.00000000 64.88374204 0.86274510 0.47058824 0.15686275
v -1591.29831585 225.00000000 31.11698217 0.86274510 0.47058824 0.15686275
v -1591.29831585 -225.00000000 31.11698217 0.86274510 0.47058824 0.15686275
v -1574.66453021 225.00000000 -0.00264194 0.86274510 0.47058824 0.15686275
v -1574.66453021 -225.00000000 -0.00264194 0.86274510 0.47058824 0.15686275
v -1552.27922061 225.00000000 -27.27922061 0.86274510 0.47058824 0.15686275
v -1552.27922061 -225.00000000 -27.27922061 0.86274510 0.47058824 0.15686275
v -1525.00264194 225.00000000 -49.66453021 0.86274510 0.47058824 0.15686275
v -1525.00264194 -225.00000000 -49.66453021 0.86274510 0.47058824 0.15686275
v -1493.88301783 225.00000000 -66.29831585 0.86274510 0.47058824 0.15686275
v -1493.88301783 -225.00000000 -66.29831585 0.86274510 0.47058824 0.15686275
v -1460.11625796 225.00000000 -76.54135047 0.86274510 0.47058824 0.15686275
v -1460.11625796 -225.00000000 -76.54135047 0.86274510 0.47058824 0.15686275
v -1425.00000000 225.00000000 -80.00000000 0.86274510 0.47058824 0.15686275
v -1425.00000000 -225.00000000 -80.00000000 0.86274510 0.47058824 0.15686275
v -1389.88374204 225.00000000 -76.54135047 0.86274510 0.47058824 0.15686275
v -1389.88374204 -225.00000000 -76.54135047 0.86274510 0.47058824 0.15686275
v -1356.11698217 225.00000000 -66.29831585 0.86274510 0.47058824 0.15686275
v -1356.11698217 -225.00000000 -66.29831585 0.86274510 0.47058824 0.15686275
v -1324.99735806 225.00000000 -49.66453021 0.86274510 0.47058824 0.15686275
v -1324.99735806 -225.00000000 -49.66453021 0.86274510 0.47058824 0.15686275
v -1297.72077939 225.00000000 -27.27922061 0.86274510 0.47058824 0.15686275
v -1297.72077939 -225.00000000 -27.27922061 0.86274510 0.47058824 0.15686275
v -1275.33546979 225.00000000 -0.00264194 0.86274510 0.47058824 0.15686275
v -1275.33546979 -225.00000000 -0.00264194 0.86274510 0.47058824 0.15686275
v -1258.70168415 225.00000000 31.11698217 0.86274510 0.47058824 0.15686275
v -1258.70168415 -225.00000000 31.11698217 0.86274510 0.47058824 0.15686275
v -1248.45864953 225.00000000 64.88374204 0.86274510 0.47058824 0.15686275
v -1248.45864953 -225.00000000 64.88374204 0.86274510 0.47058824 0.15686275
f 58 57 61
f 58 61 59
f 59 61 62
f 59 62 60
f 61 57 63
f 61 63 62
f 62 63 64
f 62 64 60
f 63 57 65
f 63 65 64
f 64 65 66
f 64 66 60
f 65 57 67
f 65 67 66
f 66 67 68
f 66 68 60
f 67 57 69
f 67 69 68
f 68 69 70
f 68 70 60
f 69 57 71
f 69 71 70
f 70 71 72
f 70 72 60
f 71 57 73
f 71 73 72
f 72 73 74
f 72 74 60
f 73 57 75
f 73 75 74
f 74 75 76
f 74 76 60
f 75 57 77
f 75 77 76
f 76 77 78
f 76 78 60
f 77 57 79
f 77 79 78
f 78 79 80
f 78 80 60
f 79 57 81
f 79 81 80
f 80 81 82
f 80 82 60
f 81 57 83
f 81 83 82
f 82 83 84
f 82 84 60
f 83 57 85
f 83 85 84
f 84 85 86
f 84 86 60
f 85 57 87
f 85 87 86
f 86 87 88
f 86 88 60
f 87 57 89
f 87 89 88
f 88 89 90
f 88 90 60
f 89 57 91
f 89 91 90
f 90 91 92
f 90 92 60
f 91 57 93
f 91 93 92
f 92 93 94
f 92 94 60
f 93 57 95
f 93 95 94
f 94 95 96
f 94 96 60
f 95 57 97
f 95 97 96
f 96 97 98
f 96 98 60
f 97 57 99
f 97 99 98
f 98 99 100
f 98 100 60
f 99 57 101
f 99 101 100
f 100 101 102
f 100 102 60
f 101 57 103
f 101 103 102
f 102 103 104
f 102 104 60
f 103 57 105
f 103 105 104
f 104 105 106
f 104 106 60
f 105 57 107
f 105 107 106
f 106 107 108
f 106 108 60
f 107 57 109
f 107 109 108
f 108 109 110
f 108 110 60
f 109 57 111
f 109 111 110
f 110 111 112
f 110 112 60
f 111 57 113
f 111 113 112
f 112 113 114
f 112 114 60
f 113 57 115
f 113 115 114
f 114 115 116
f 114 116 60
f 115 57 117
f 115 117 116
f 116 117 118
f 116 118 60
f 117 57 119
f 117 119 118
f 118 119 120
f 118 120 60
f 119 57 121
f 119 121 120
f 120 121 122
f 120 122 60
f 121 57 58
f 121 58 122
f 122 58 59
f 122 59 60

o geometry_8
v 1425.00000000 250.00000000 100.00000000 0.86274510 0.47058824 0.15686275
v 1625.00000000 250.00000000 100.00000000 0.86274510 0.47058824 0.15686275
v 1625.00000000 -250.00000000 100.00000000 0.86274510 0.47058824 0.15686275
v 1425.00000000 -250.00000000 100.00000000 0.86274510 0.47058824 0.15686275
v 1621.15705608 250.00000000 139.01806440 0.86274510 0.47058824 0.15686275
v 1621.15705608 -250.00000000 139.01806440 0.86274510 0.47058824 0.15686275
v 1609.77590650 250.00000000 176.53668647 0.86274510 0.47058824 0.15686275
v 1609.77590650 -250.00000000 176.53668647 0.86274510 0.47058824 0.15686275
v 1591.29392246 250.00000000 211.11404660 0.86274510 0.47058824 0.15686275
v 1591.29392246 -250.00000000 211.11404660 0.86274510 0.47058824 0.15686275
v 1566.42135624 250.00000000 241.42135624 0.86274510 0.47058824 0.15686275
v 1566.42135624 -250.00000000 241.42135624 0.86274510 0.47058824 0.15686275
v 1536.11404660 250.00000000 266.29392246 0.86274510 0.47058824 0.15686275
v 1536.11404660 -250.00000000 266.29392246 0.86274510 0.47058824 0.15686275
v 1501.53668647 250.00000000 284.77590650 0.86274510 0.47058824 0.15686275
v 1501.53668647 -250.00000000 284.77590650 0.86274510 0.47058824 0.15686275
v 1464.01806440 250.00000000 296.15705608 0.86274510 0.47058824 0.15686275
v 1464.01806440 -250.00000000 296.15705608 0.86274510 0.47058824 0.15686275
v 1425.00000000 250.00000000 300.00000000 0.86274510 0.47058824 0.15686275
v 1425.00000000 -250.00000000 300.00000000 0.86274510 0.47058824 0.15686275
v 1385.98193560 250.00000000 296.15705608 0.86274510 0.47058824 0.15686275
v 1385.98193560 -250.00000000 296.15705608 0.86274510 0.47058824 0.15686275
v 1348.46331353 250.00000000 284.77590650 0.86274510 0.47058824 0.15686275
v 1348.46331353 -250.00000000 284.77590650 0.86274510 0.47058824 0.15686275
v 1313.88595340 250.00000000 266.29392246 0.86274510 0.47058824 0.15686275
v 1313.88595340 -250.00000000 266.29392246 0.86274510 0.47058824 0.15686275
v 1283.57864376 250.00000000 241.42135624 0.86274510 0.47058824 0.15686275
v 1283.57864376 -250.00000000 241.42135624 0.86274510 0.47058824 0.15686275
v 1258.70607754 250.00000000 211.11404660 0.86274510 0.47058824 0.15686275
v 1258.70607754 -250.00000000 211.11404660 0.86274510 0.47058824 0.15686275
v 1240.22409350 250.00000000 176.53668647 0.86274510 0.47058824 0.15686275
v 1240.22409350 -250.00000000 176.53668647 0.86274510 0.47058824 0.15686275
v 1228.84294392 250.00000000 139.01806440 0.86274510 0.47058824 0.15686275
v 1228.84294392 -250.00000000 139.01806440 0.86274510 0.47058824 0.15686275
v 1225.00000000 250.00000000 100.00000000 0.86274510 0.47058824 0.15686275
v 1225.00000000 -250.00000000 100.00000000 0.86274510 0.47058824 0.15686275
v 1228.84294392 250.00000000 60.98193560 0.86274510 0.47058824 0.15686275
v 1228.84294392 -250.00000000 60.98193560 0.86274510 0.47058824 0.15686275
v 1240.22409350 250.00000000 23.46331353 0.86274510 0.47058824 0.15686275
v 1240.22409350 -250.00000000 23.46331353 0.86274510 0.47058824 0.15686275
v 1258.70607754 250.00000000 -11.11404660 0.86274510 0.47058824 0.15686275
v 1258.70607754 -250.00000000 -11.11404660 0.86274510 0.47058824 0.15686275
v 1283.57864376 250.00000000 -41.42135624 0.86274510 0.47058824 0.15686275
v 1283.57864376 -250.00000000 -41.42135624 0.86274510 0.47058824 0.15686275
v 1313.88595340 250.00000000 -66.29392246 0.86274510 0.47058824 0.15686275
v 1313.88595340 -250.00000000 -66.29392246 0.86274510 0.47058824 0.15686275
v 1348.46331353 250.00000000 -84.77590650 0.86274510 0.47058824 0.15686275
v 1348.46331353 -250.00000000 -84.77590650 0.86274510 0.47058824 0.15686275
v 1385.98193560 250.00000000 -96.15705608 0.86274510 0.47058824 0.15686275
v 1385.98193560 -250.00000000 -96.15705608 0.86274510 0.47058824 0.15686275
v 1425.00000000 250.00000000 -100.00000000 0.86274510 0.47058824 0.15686275
v 1425.00000000 -250.00000000 -100.00000000 0.86274510 0.47058824 0.15686275
v 1464.01806440 250.00000000 -96.15705608 0.86274510 0.47058824 0.15686275
v 1464.01806440 -250.00000000 -96.15705608 0.86274510 0.47058824 0.15686275
v 1501.53668647 250.00000000 -84.77590650 0.86274510 0.47058824 0.15686275
v 1501.53668647 -250.00000000 -84.77590650 0.86274510 0.47058824 0.15686275
v 1536.11404660 250.00000000 -66.29392246 0.86274510 0.47058824 0.15686275
v 1536.11404660 -250.00000000 -66.29392246 0.86274510 0.47058824 0.15686275
v 1566.42135624 250.00000000 -41.42135624 0.86274510 0.47058824 0.15686275
v 1566.42135624 -250.00000000 -41.42135624 0.86274510 0.47058824 0.15686275
v 1591.29392246 250.00000000 -11.11404660 0.86274510 0.47058824 0.15686275
v 1591.29392246 -250.00000000 -11.11404660 0.86274510 0.47058824 0.15686275
v 1609.77590650 250.00000000 23.46331353 0.86274510 0.47058824 0.15686275
v 1609.77590650 -250.00000000 23.46331353 0.86274510 0.47058824 0.15686275
v 1621.15705608 250.00000000 60.98193560 0.86274510 0.47058824 0.15686275
v 1621.15705608 -250.00000000 60.98193560 0.86274510 0.47058824 0.15686275
f 124 123 127
f 124 127 125
f 125 127 128
f 125 128 126
f 127 123 129
f 127 129 128
f 128 129 130
f 128 130 126
f 129 123 131
f 129 131 130
f 130 131 132
f 130 132 126
f 131 123 133
f 131 133 132
f 132 133 134
f 132 134 126
f 133 123 135
f 133 135 134
f 134 135 136
f 134 136 126
f 135 123 137
f 135 137 136
f 136 137 138
f 136 138 126
f 137 123 139
f 137 139 138
f 138 139 140
f 138 140 126
f 139 123 141
f 139 141 140
f 140 141 142
f 140 142 126
f 141 123 143
f 141 143 142
f 142 143 144
f 142 144 126
f 143 123 145
f 143 145 144
f 144 145 146
f 144 146 126
f 145 123 147
f 145 147 146
f 146 147 148
f 146 148 126
f 147 123 149
f 147 149 148
f 148 149 150
f 148 150 126
f 149 123 151
f 149 151 150
f 150 151 152
f 150 152 126
f 151 123 153
f 151 153 152
f 152 153 154
f 152 154 126
f 153 123 155
f 153 155 154
f 154 155 156
f 154 156 126
f 155 123 157
f 155 157 156
f 156 157 158
f 156 158 126
f 157 123 159
f 157 159 158
f 158 159 160
f 158 160 126
f 159 123 161
f 159 161 160
f 160 161 162
f 160 162 126
f 161 123 163
f 161 163 162
f 162 163 164
f 162 164 126
f 163 123 165
f 163 165 164
f 164 165 166
f 164 166 126
f 165 123 167
f 165 167 166
f 166 167 168
f 166 168 126
f 167 123 169
f 167 169 168
f 168 169 170
f 168 170 126
f 169 123 171
f 169 171 170
f 170 171 172
f 170 172 126
f 171 123 173
f 171 173 172
f 172 173 174
f 172 174 126
f 173 123 175
f 173 175 174
f 174 175 176
f 174 176 126
f 175 123 177
f 175 177 176
f 176 177 178
f 176 178 126
f 177 123 179
f 177 179 178
f 178 179 180
f 178 180 126
f 179 123 181
f 179 181 180
f 180 181 182
f 180 182 126
f 181 123 183
f 181 183 182
f 182 183 184
f 182 184 126
f 183 123 185
f 183 185 184
f 184 185 186
f 184 186 126
f 185 123 187
f 185 187 186
f 186 187 188
f 186 188 126
f 187 123 124
f 187 124 188
f 188 124 125
f 188 125 126

o geometry_9
v -1425.00000000 -877.50000000 -0.00000000 0.15686275 0.15686275 0.17647059
v -1075.00000000 -877.50000000 -0.00000000 0.15686275 0.15686275 0.17647059
v -1075.00000000 -1122.50000000 0.00000000 0.15686275 0.15686275 0.17647059
v -1425.00000000 -1122.50000000 0.00000000 0.15686275 0.15686275 0.17647059
v -1081.72515186 -877.50000000 68.28161271 0.15686275 0.15686275 0.17647059
v -1081.72515186 -1122.50000000 68.28161271 0.15686275 0.15686275 0.17647059
v -1101.64216362 -877.50000000 133.93920133 0.15686275 0.15686275 0.17647059
v -1101.64216362 -1122.50000000 133.93920133 0.15686275 0.15686275 0.17647059
v -1133.98563569 -877.50000000 194.44958156 0.15686275 0.15686275 0.17647059
v -1133.98563569 -1122.50000000 194.44958156 0.15686275 0.15686275 0.17647059
v -1177.51262658 -877.50000000 247.48737342 0.15686275 0.15686275 0.17647059
v -1177.51262658 -1122.50000000 247.48737342 0.15686275 0.15686275 0.17647059
v -1230.55041844 -877.50000000 291.01436431 0.15686275 0.15686275 0.17647059
v -1230.55041844 -1122.50000000 291.01436431 0.15686275 0.15686275 0.17647059
v -1291.06079867 -877.50000000 323.35783638 0.15686275 0.15686275 0.17647059
v -1291.06079867 -1122.50000000 323.35783638 0.15686275 0.15686275 0.17647059
v -1356.71838729 -877.50000000 343.27484814 0.15686275 0.15686275 0.17647059
v -1356.71838729 -1122.50000000 343.27484814 0.15686275 0.15686275 0.17647059
v -1425.00000000 -877.50000000 350.00000000 0.15686275 0.15686275 0.17647059
v -1425.00000000 -1122.50000000 350.00000000 0.15686275 0.15686275 0.17647059
v -1493.28161271 -877.50000000 343.27484814 0.15686275 0.15686275 0.17647059
v -1493.28161271 -1122.50000000 343.27484814 0.15686275 0.15686275 0.17647059
v -1558.93920133 -877.50000000 323.35783638 0.15686275 0.15686275 0.17647059
v -1558.93920133 -1122.50000000 323.35783638 0.15686275 0.15686275 0.17647059
v -1619.44958156 -877.50000000 291.01436431 0.15686275 0.15686275 0.17647059
v -1619.44958156 -1122.50000000 291.01436431 0.15686275 0.15686275 0.17647059
v -1672.48737342 -877.50000000 247.48737342 0.15686275 0.15686275 0.17647059
v -1672.48737342 -1122.50000000 247.48737342 0.15686275 0.15686275 0.17647059
v -1716.01436431 -877.50000000 194.44958156 0.15686275 0.15686275 0.17647059
v -1716.01436431 -1122.50000000 194.44958156 0.15686275 0.15686275 0.17647059
v -1748.35783638 -877.50000000 133.93920133 0.15686275 0.15686275 0.17647059
v -1748.35783638 -1122.50000000 133.93920133 0.15686275 0.15686275 0.17647059
v -1768.27484814 -877.50000000 68.28161271 0.15686275 0.15686275 0.17647059
v -1768.27484814 -1122.50000000 68.28161271 0.15686275 0.15686275 0.17647059
v -1775.00000000 -877.50000000 0.00000000 0.15686275 0.15686275 0.17647059
v -1775.00000000 -1122.50000000 0.00000000 0.15686275 0.15686275 0.17647059
v -1768.27484814 -877.50000000 -68.28161271 0.15686275 0.15686275 0.17647059
v -1768.27484814 -1122.50000000 -68.28161271 0.15686275 0.15686275 0.17647059
v -1748.35783638 -877.50000000 -133.93920133 0.15686275 0.15686275 0.17647059
v -1748.35783638 -1122.50000000 -133.93920133 0.15686275 0.15686275 0.17647059
v -1716.01436431 -877.50000000 -194.44958156 0.15686275 0.15686275 0.17647059
v -1716.01436431 -1122.50000000 -194.44958156 0.15686275 0.15686275 0.17647059
v -1672.48737342 -877.50000000 -247.48737342 0.15686275 0.15686275 0.17647059
v -1672.48737342 -1122.50000000 -247.48737342 0.15686275 0.15686275 0.17647059
v -1619.44958156 -877.50000000 -291.01436431 0.15686275 0.15686275 0.17647059
v -1619.44958156 -1122.50000000 -291.01436431 0.15686275 0.15686275 0.17647059
v -1558.93920133 -877.50000000 -323.35783638 0.15686275 0.15686275 0.17647059
v -1558.93920133 -1122.50000000 -323.35783638 0.15686275 0.15686275 0.17647059
v -1493.28161271 -877.50000000 -343.27484814 0.15686275 0.15686275 0.17647059
v -1493.28161271 -1122.50000000 -343.27484814 0.15686275 0.15686275 0.17647059
v -1425.00000000 -877.50000000 -350.00000000 0.15686275 0.15686275 0.17647059
v -1425.00000000 -1122.50000000 -350.00000000 0.15686275 0.15686275 0.17647059
v -1356.71838729 -877.50000000 -343.27484814 0.15686275 0.15686275 0.17647059
v -1356.71838729 -1122.50000000 -343.27484814 0.15686275 0.15686275 0.17647059
v -1291.06079867 -877.50000000 -323.35783638 0.15686275 0.15686275 0.17647059
v -1291.06079867 -1122.50000000 -323.35783638 0.15686275 0.15686275 0.17647059
v -1230.55041844 -877.50000000 -291.01436431 0.15686275 0.15686275 0.17647059
v -1230.55041844 -1122.50000000 -291.01436431 0.15686275 0.15686275 0.17647059
v -1177.51262658 -877.50000000 -247.48737342 0.15686275 0.15686275 0.17647059
v -1177.51262658 -1122.50000000 -247.48737342 0.15686275 0.15686275 0.17647059
v -1133.98563569 -877.50000000 -194.44958156 0.15686275 0.15686275 0.17647059
v -1133.98563569 -1122.50000000 -194.44958156 0.15686275 0.15686275 0.17647059
v -1101.64216362 -877.50000000 -133.93920133 0.15686275 0.15686275 0.17647059
v -1101.64216362 -1122.50000000 -133.93920133 0.15686275 0.15686275 0.17647059
v -1081.72515186 -877.50000000 -68.28161271 0.15686275 0.15686275 0.17647059
v -1081.72515186 -1122.50000000 -68.28161271 0.15686275 0.15686275 0.17647059
f 190 189 193
f 190 193 191
f 191 193 194
f 191 194 192
f 193 189 195
f 193 195 194
f 194 195 196
f 194 196 192
f 195 189 197
f 195 197 196
f 196 197 198
f 196 198 192
f 197 189 199
f 197 199 198
f 198 199 200
f 198 200 192
f 199 189 201
f 199 201 200
f 200 201 202
f 200 202 192
f 201 189 203
f 201 203 202
f 202 203 204
f 202 204 192
f 203 189 205
f 203 205 204
f 204 205 206
f 204 206 192
f 205 189 207
f 205 207 206
f 206 207 208
f 206 208 192
f 207 189 209
f 207 209 208
f 208 209 210
f 208 210 192
f 209 189 211
f 209 211 210
f 210 211 212
f 210 212 192
f 211 189 213
f 211 213 212
f 212 213 214
f 212 214 192
f 213 189 215
f 213 215 214
f 214 215 216
f 214 216 192
f 215 189 217
f 215 217 216
f 216 217 218
f 216 218 192
f 217 189 219
f 217 219 218
f 218 219 220
f 218 220 192
f 219 189 221
f 219 221 220
f 220 221 222
f 220 222 192
f 221 189 223
f 221 223 222
f 222 223 224
f 222 224 192
f 223 189 225
f 223 225 224
f 224 225 226
f 224 226 192
f 225 189 227
f 225 227 226
f 226 227 228
f 226 228 192
f 227 189 229
f 227 229 228
f 228 229 230
f 228 230 192
f 229 189 231
f 229 231 230
f 230 231 232
f 230 232 192
f 231 189 233
f 231 233 232
f 232 233 234
f 232 234 192
f 233 189 235
f 233 235 234
f 234 235 236
f 234 236 192
f 235 189 237
f 235 237 236
f 236 237 238
f 236 238 192
f 237 189 239
f 237 239 238
f 238 239 240
f 238 240 192
f 239 189 241
f 239 241 240
f 240 241 242
f 240 242 192
f 241 189 243
f 241 243 242
f 242 243 244
f 242 244 192
f 243 189 245
f 243 245 244
f 244 245 246
f 244 246 192
f 245 189 247
f 245 247 246
f 246 247 248
f 246 248 192
f 247 189 249
f 247 249 248
f 248 249 250
f 248 250 192
f 249 189 251
f 249 251 250
f 250 251 252
f 250 252 192
f 251 189 253
f 251 253 252
f 252 253 254
f 252 254 192
f 253 189 190
f 253 190 254
f 254 190 191
f 254 191 192

o geometry_10
v -1425.00000000 1122.50000000 -0.00000000 0.15686275 0.15686275 0.17647059
v -1075.00000000 1122.50000000 -0.00000000 0.15686275 0.15686275 0.17647059
v -1075.00000000 877.50000000 0.00000000 0.15686275 0.15686275 0.17647059
v -1425.00000000 877.50000000 0.00000000 0.15686275 0.15686275 0.17647059
v -1081.72515186 1122.50000000 68.28161271 0.15686275 0.15686275 0.17647059
v -1081.72515186 877.50000000 68.28161271 0.15686275 0.15686275 0.17647059
v -1101.64216362 1122.50000000 133.93920133 0.15686275 0.15686275 0.17647059
v -1101.64216362 877.50000000 133.93920133 0.15686275 0.15686275 0.17647059
v -1133.98563569 1122.50000000 194.44958156 0.15686275 0.15686275 0.17647059
v -1133.98563569 877.50000000 194.44958156 0.15686275 0.15686275 0.17647059
v -1177.51262658 1122.50000000 247.48737342 0.15686275 0.15686275 0.17647059
v -1177.51262658 877.50000000 247.48737342 0.15686275 0.15686275 0.17647059
v -1230.55041844 1122.50000000 291.01436431 0.15686275 0.15686275 0.17647059
v -1230.55041844 877.50000000 291.01436431 0.15686275 0.15686275 0.17647059
v -1291.06079867 1122.50000000 323.35783638 0.15686275 0.15686275 0.17647059
v -1291.06079867 877.50000000 323.35783638 0.15686275 0.15686275 0.17647059
v -1356.71838729 1122.50000000 343.27484814 0.15686275 0.15686275 0.17647059
v -1356.71838729 877.50000000 343.27484814 0.15686275 0.15686275 0.17647059
v -1425.00000000 1122.50000000 350.00000000 0.15686275 0.15686275 0.17647059
v -1425.00000000 877.50000000 350.00000000 0.15686275 0.15686275 0.17647059
v -1493.28161271 1122.50000000 343.27484814 0.15686275 0.15686275 0.17647059
v -1493.28161271 877.50000000 343.27484814 0.15686275 0.15686275 0.17647059
v -1558.93920133 1122.50000000 323.35783638 0.15686275 0.15686275 0.17647059
v -1558.93920133 877.50000000 323.35783638 0.15686275 0.15686275 0.17647059
v -1619.44958156 1122.50000000 291.01436431 0.15686275 0.15686275 0.17647059
v -1619.44958156 877.50000000 291.01436431 0.15686275 0.15686275 0.17647059
v -1672.48737342 1122.50000000 247.48737342 0.15686275 0.15686275 0.17647059
v -1672.48737342 877.50000000 247.48737342 0.15686275 0.15686275 0.17647059
v -1716.01436431 1122.50000000 194.44958156 0.15686275 0.15686275 0.17647059
v -1716.01436431 877.50000000 194.44958156 0.15686275 0.15686275 0.17647059
v -1748.35783638 1122.50000000 133.93920133 0.15686275 0.15686275 0.17647059
v -1748.35783638 877.50000000 133.93920133 0.15686275 0.15686275 0.17647059
v -1768.27484814 1122.50000000 68.28161271 0.15686275 0.15686275 0.17647059
v -1768.27484814 877.50000000 68.28161271 0.15686275 0.15686275 0.17647059
v -1775.00000000 1122.50000000 0.00000000 0.15686275 0.15686275 0.17647059
v -1775.00000000 877.50000000 0.00000000 0.15686275 0.15686275 0.17647059
v -1768.27484814 1122.50000000 -68.28161271 0.15686275 0.15686275 0.17647059
v -1768.27484814 877.50000000 -68.28161271 0.15686275 0.15686275 0.17647059
v -1748.35783638 1122.50000000 -133.93920133 0.15686275 0.15686275 0.17647059
v -1748.35783638 877.50000000 -133.93920133 0.15686275 0.15686275 0.17647059
v -1716.01436431 1122.50000000 -194.44958156 0.15686275 0.15686275 0.17647059
v -1716.01436431 877.50000000 -194.44958156 0.15686275 0.15686275 0.17647059
v -1672.48737342 1122.50000000 -247.48737342 0.15686275 0.15686275 0.17647059
v -1672.48737342 877.50000000 -247.48737342 0.15686275 0.15686275 0.17647059
v -1619.44958156 1122.50000000 -291.01436431 0.15686275 0.15686275 0.17647059
v -1619.44958156 877.50000000 -291.01436431 0.15686275 0.15686275 0.17647059
v -1558.93920133 1122.50000000 -323.35783638 0.15686275 0.15686275 0.17647059
v -1558.93920133 877.50000000 -323.35783638 0.15686275 0.15686275 0.17647059
v -1493.28161271 1122.50000000 -343.27484814 0.15686275 0.15686275 0.17647059
v -1493.28161271 877.50000000 -343.27484814 0.15686275 0.15686275 0.17647059
v -1425.00000000 1122.50000000 -350.00000000 0.15686275 0.15686275 0.17647059
v -1425.00000000 877.50000000 -350.00000000 0.15686275 0.15686275 0.17647059
v -1356.71838729 1122.50000000 -343.27484814 0.15686275 0.15686275 0.17647059
v -1356.71838729 877.50000000 -343.27484814 0.15686275 0.15686275 0.17647059
v -1291.06079867 1122.50000000 -323.35783638 0.15686275 0.15686275 0.17647059
v -1291.06079867 877.50000000 -323.35783638 0.15686275 0.15686275 0.17647059
v -1230.55041844 1122.50000000 -291.01436431 0.15686275 0.15686275 0.17647059
v -1230.55041844 877.50000000 -291.01436431 0.15686275 0.15686275 0.17647059
v -1177.51262658 1122.50000000 -247.48737342 0.15686275 0.15686275 0.17647059
v -1177.51262658 877.50000000 -247.48737342 0.15686275 0.15686275 0.17647059
v -1133.98563569 1122.50000000 -194.44958156 0.15686275 0.15686275 0.17647059
v -1133.98563569 877.50000000 -194.44958156 0.15686275 0.15686275 0.17647059
v -1101.64216362 1122.50000000 -133.93920133 0.15686275 0.15686275 0.17647059
v -1101.64216362 877.50000000 -133.93920133 0.15686275 0.15686275 0.17647059
v -1081.72515186 1122.50000000 -68.28161271 0.15686275 0.15686275 0.17647059
v -1081.72515186 877.50000000 -68.28161271 0.15686275 0.15686275 0.17647059
f 256 255 259
f 256 259 257
f 257 259 260
f 257 260 258
f 259 255 261
f 259 261 260
f 260 261 262
f 260 262 258
f 261 255 263
f 261 263 262
f 262 263 264
f 262 264 258
f 263 255 265
f 263 265 264
f 264 265 266
f 264 266 258
f 265 255 267
f 265 267 266
f 266 267 268
f 266 268 258
f 267 255 269
f 267 269 268
f 268 269 270
f 268 270 258
f 269 255 271
f 269 271 270
f 270 271 272
f 270 272 258
f 271 255 273
f 271 273 272
f 272 273 274
f 272 274 258
f 273 255 275
f 273 275 274
f 274 275 276
f 274 276 258
f 275 255 277
f 275 277 276
f 276 277 278
f 276 278 258
f 277 255 279
f 277 279 278
f 278 279 280
f 278 280 258
f 279 255 281
f 279 281 280
f 280 281 282
f 280 282 258
f 281 255 283
f 281 283 282
f 282 283 284
f 282 284 258
f 283 255 285
f 283 285 284
f 284 285 286
f 284 286 258
f 285 255 287
f 285 287 286
f 286 287 288
f 286 288 258
f 287 255 289
f 287 289 288
f 288 289 290
f 288 290 258
f 289 255 291
f 289 291 290
f 290 291 292
f 290 292 258
f 291 255 293
f 291 293 292
f 292 293 294
f 292 294 258
f 293 255 295
f 293 295 294
f 294 295 296
f 294 296 258
f 295 255 297
f 295 297 296
f 296 297 298
f 296 298 258
f 297 255 299
f 297 299 298
f 298 299 300
f 298 300 258
f 299 255 301
f 299 301 300
f 300 301 302
f 300 302 258
f 301 255 303
f 301 303 302
f 302 303 304
f 302 304 258
f 303 255 305
f 303 305 304
f 304 305 306
f 304 306 258
f 305 255 307
f 305 307 306
f 306 307 308
f 306 308 258
f 307 255 309
f 307 309 308
f 308 309 310
f 308 310 258
f 309 255 311
f 309 311 310
f 310 311 312
f 310 312 258
f 311 255 313
f 311 313 312
f 312 313 314
f 312 314 258
f 313 255 315
f 313 315 314
f 314 315 316
f 314 316 258
f 315 255 317
f 315 317 316
f 316 317 318
f 316 318 258
f 317 255 319
f 317 319 318
f 318 319 320
f 318 320 258
f 319 255 256
f 319 256 320
f 320 256 257
f 320 257 258

o geometry_11
v 1425.00000000 -877.50000000 -0.00000000 0.15686275 0.15686275 0.17647059
v 1775.00000000 -877.50000000 -0.00000000 0.15686275 0.15686275 0.17647059
v 1775.00000000 -1122.50000000 0.00000000 0.15686275 0.15686275 0.17647059
v 1425.00000000 -1122.50000000 0.00000000 0.15686275 0.15686275 0.17647059
v 1768.27484814 -877.50000000 68.28161271 0.15686275 0.15686275 0.17647059
v 1768.27484814 -1122.50000000 68.28161271 0.15686275 0.15686275 0.17647059
v 1748.35783638 -877.50000000 133.93920133 0.15686275 0.15686275 0.17647059
v 1748.35783638 -1122.50000000 133.93920133 0.15686275 0.15686275 0.17647059
v 1716.01436431 -877.50000000 194.44958156 0.15686275 0.15686275 0.17647059
v 1716.01436431 -1122.50000000 194.44958156 0.15686275 0.15686275 0.17647059
v 1672.48737342 -877.50000000 247.48737342 0.15686275 0.15686275 0.17647059
v 1672.48737342 -1122.50000000 247.48737342 0.15686275 0.15686275 0.17647059
v 1619.44958156 -877.50000000 291.01436431 0.15686275 0.15686275 0.17647059
v 1619.44958156 -1122.50000000 291.01436431 0.15686275 0.15686275 0.17647059
v 1558.93920133 -877.50000000 323.35783638 0.15686275 0.15686275 0.17647059
v 1558.93920133 -1122.50000000 323.35783638 0.15686275 0.15686275 0.17647059
v 1493.28161271 -877.50000000 343.27484814 0.15686275 0.15686275 0.17647059
v 1493.28161271 -1122.50000000 343.27484814 0.15686275 0.15686275 0.17647059
v 1425.00000000 -877.50000000 350.00000000 0.15686275 0.15686275 0.17647059
v 1425.00000000 -1122.50000000 350.00000000 0.15686275 0.15686275 0.17647059
v 1356.71838729 -877.50000000 343.27484814 0.15686275 0.15686275 0.17647059
v 1356.71838729 -1122.50000000 343.27484814 0.15686275 0.15686275 0.17647059
v 1291.06079867 -877.50000000 323.35783638 0.15686275 0.15686275 0.17647059
v 1291.06079867 -1122.50000000 323.35783638 0.15686275 0.15686275 0.17647059
v 1230.55041844 -877.50000000 291.01436431 0.15686275 0.15686275 0.17647059
v 1230.55041844 -1122.50000000 291.01436431 0.15686275 0.15686275 0.17647059
v 1177.51262658 -877.50000000 247.48737342 0.15686275 0.15686275 0.17647059
v 1177.51262658 -1122.50000000 247.48737342 0.15686275 0.15686275 0.17647059
v 1133.98563569 -877.50000000 194.44958156 0.15686275 0.15686275 0.17647059
v 1133.98563569 -1122.50000000 194.44958156 0.15686275 0.15686275 0.17647059
v 1101.64216362 -877.50000000 133.93920133 0.15686275 0.15686275 0.17647059
v 1101.64216362 -1122.50000000 133.93920133 0.15686275 0.15686275 0.17647059
v 1081.72515186 -877.50000000 68.28161271 0.15686275 0.15686275 0.17647059
v 1081.72515186 -1122.50000000 68.28161271 0.15686275 0.15686275 0.17647059
v 1075.00000000 -877.50000000 0.00000000 0.15686275 0.15686275 0.17647059
v 1075.00000000 -1122.50000000 0.00000000 0.15686275 0.15686275 0.17647059
v 1081.72515186 -877.50000000 -68.28161271 0.15686275 0.15686275 0.17647059
v 1081.72515186 -1122.50000000 -68.28161271 0.15686275 0.15686275 0.17647059
v 1101.64216362 -877.50000000 -133.93920133 0.15686275 0.15686275 0.17647059
v 1101.64216362 -1122.50000000 -133.93920133 0.15686275 0.15686275 0.17647059
v 1133.98563569 -877.50000000 -194.44958156 0.15686275 0.15686275 0.17647059
v 1133.98563569 -1122.50000000 -194.44958156 0.15686275 0.15686275 0.17647059
v 1177.51262658 -877.50000000 -247.48737342 0.15686275 0.15686275 0.17647059
v 1177.51262658 -1122.50000000 -247.48737342 0.15686275 0.15686275 0.17647059
v 1230.55041844 -877.50000000 -291.01436431 0.15686275 0.15686275 0.17647059
v 1230.55041844 -1122.50000000 -291.01436431 0.15686275 0.15686275 0.17647059
v 1291.06079867 -877.50000000 -323.35783638 0.15686275 0.15686275 0.17647059
v 1291.06079867 -1122.50000000 -323.35783638 0.15686275 0.15686275 0.17647059
v 1356.71838729 -877.50000000 -343.27484814 0.15686275 0.15686275 0.17647059
v 1356.71838729 -1122.50000000 -343.27484814 0.15686275 0.15686275 0.17647059
v 1425.00000000 -877.50000000 -350.00000000 0.15686275 0.15686275 0.17647059
v 1425.00000000 -1122.50000000 -350.00000000 0.15686275 0.15686275 0.17647059
v 1493.28161271 -877.50000000 -343.27484814 0.15686275 0.15686275 0.17647059
v 1493.28161271 -1122.50000000 -343.27484814 0.15686275 0.15686275 0.17647059
v 1558.93920133 -877.50000000 -323.35783638 0.15686275 0.15686275 0.17647059
v 1558.93920133 -1122.50000000 -323.35783638 0.15686275 0.15686275 0.17647059
v 1619.44958156 -877.50000000 -291.01436431 0.15686275 0.15686275 0.17647059
v 1619.44958156 -1122.50000000 -291.01436431 0.15686275 0.15686275 0.17647059
v 1672.48737342 -877.50000000 -247.48737342 0.15686275 0.15686275 0.17647059
v 1672.48737342 -1122.50000000 -247.48737342 0.15686275 0.15686275 0.17647059
v 1716.01436431 -877.50000000 -194.44958156 0.15686275 0.15686275 0.17647059
v 1716.01436431 -1122.50000000 -194.44958156 0.15686275 0.15686275 0.17647059
v 1748.35783638 -877.50000000 -133.93920133 0.15686275 0.15686275 0.17647059
v 1748.35783638 -1122.50000000 -133.93920133 0.15686275 0.15686275 0.17647059
v 1768.27484814 -877.50000000 -68.28161271 0.15686275 0.15686275 0.17647059
v 1768.27484814 -1122.50000000 -68.28161271 0.15686275 0.15686275 0.17647059
f 322 321 325
f 322 325 323
f 323 325 326
f 323 326 324
f 325 321 327
f 325 327 326
f 326 327 328
f 326 328 324
f 327 321 329
f 327 329 328
f 328 329 330
f 328 330 324
f 329 321 331
f 329 331 330
f 330 331 332
f 330 332 324
f 331 321 333
f 331 333 332
f 332 333 334
f 332 334 324
f 333 321 335
f 333 335 334
f 334 335 336
f 334 336 324
f 335 321 337
f 335 337 336
f 336 337 338
f 336 338 324
f 337 321 339
f 337 339 338
f 338 339 340
f 338 340 324
f 339 321 341
f 339 341 340
f 340 341 342
f 340 342 324
f 341 321 343
f 341 343 342
f 342 343 344
f 342 344 324
f 343 321 345
f 343 345 344
f 344 345 346
f 344 346 324
f 345 321 347
f 345 347 346
f 346 347 348
f 346 348 324
f 347 321 349
f 347 349 348
f 348 349 350
f 348 350 324
f 349 321 351
f 349 351 350
f 350 351 352
f 350 352 324
f 351 321 353
f 351 353 352
f 352 353 354
f 352 354 324
f 353 321 355
f 353 355 354
f 354 355 356
f 354 356 324
f 355 321 357
f 355 357 356
f 356 357 358
f 356 358 324
f 357 321 359
f 357 359 358
f 358 359 360
f 358 360 324
f 359 321 361
f 359 361 360
f 360 361 362
f 360 362 324
f 361 321 363
f 361 363 362
f 362 363 364
f 362 364 324
f 363 321 365
f 363 365 364
f 364 365 366
f 364 366 324
f 365 321 367
f 365 367 366
f 366 367 368
f 366 368 324
f 367 321 369
f 367 369 368
f 368 369 370
f 368 370 324
f 369 321 371
f 369 371 370
f 370 371 372
f 370 372 324
f 371 321 373
f 371 373 372
f 372 373 374
f 372 374 324
f 373 321 375
f 373 375 374
f 374 375 376
f 374 376 324
f 375 321 377
f 375 377 376
f 376 377 378
f 376 378 324
f 377 321 379
f 377 379 378
f 378 379 380
f 378 380 324
f 379 321 381
f 379 381 380
f 380 381 382
f 380 382 324
f 381 321 383
f 381 383 382
f 382 383 384
f 382 384 324
f 383 321 385
f 383 385 384
f 384 385 386
f 384 386 324
f 385 321 322
f 385 322 386
f 386 322 323
f 386 323 324

o geometry_12
v 1425.00000000 1122.50000000 -0.00000000 0.15686275 0.15686275 0.17647059
v 1775.00000000 1122.50000000 -0.00000000 0.15686275 0.15686275 0.17647059
v 1775.00000000 877.50000000 0.00000000 0.15686275 0.15686275 0.17647059
v 1425.00000000 877.50000000 0.00000000 0.15686275 0.15686275 0.17647059
v 1768.27484814 1122.50000000 68.28161271 0.15686275 0.15686275 0.17647059
v 1768.27484814 877.50000000 68.28161271 0.15686275 0.15686275 0.17647059
v 1748.35783638 1122.50000000 133.93920133 0.15686275 0.15686275 0.17647059
v 1748.35783638 877.50000000 133.93920133 0.15686275 0.15686275 0.17647059
v 1716.01436431 1122.50000000 194.44958156 0.15686275 0.15686275 0.17647059
v 1716.01436431 877.50000000 194.44958156 0.15686275 0.15686275 0.17647059
v 1672.48737342 1122.50000000 247.48737342 0.15686275 0.15686275 0.17647059
v 1672.48737342 877.50000000 247.48737342 0.15686275 0.15686275 0.17647059
v 1619.44958156 1122.50000000 291.01436431 0.15686275 0.15686275 0.17647059
v 1619.44958156 877.50000000 291.01436431 0.15686275 0.15686275 0.17647059
v 1558.93920133 1122.50000000 323.35783638 0.15686275 0.15686275 0.17647059
v 1558.93920133 877.50000000 323.35783638 0.15686275 0.15686275 0.17647059
v 1493.28161271 1122.50000000 343.27484814 0.15686275 0.15686275 0.17647059
v 1493.28161271 877.50000000 343.27484814 0.15686275 0.15686275 0.17647059
v 1425.00000000 1122.50000000 350.00000000 0.15686275 0.15686275 0.17647059
v 1425.00000000 877.50000000 350.00000000 0.15686275 0.15686275 0.17647059
v 1356.71838729 1122.50000000 343.27484814 0.15686275 0.15686275 0.17647059
v 1356.71838729 877.50000000 343.27484814 0.15686275 0.15686275 0.17647059
v 1291.06079867 1122.50000000 323.35783638 0.15686275 0.15686275 0.17647059
v 1291.06079867 877.50000000 323.35783638 0.15686275 0.15686275 0.17647059
v 1230.55041844 1122.50000000 291.01436431 0.15686275 0.15686275 0.17647059
v 1230.55041844 877.50000000 291.01436431 0.15686275 0.15686275 0.17647059
v 1177.51262658 1122.50000000 247.48737342 0.15686275 0.15686275 0.17647059
v 1177.51262658 877.50000000 247.48737342 0.15686275 0.15686275 0.17647059
v 1133.98563569 1122.50000000 194.44958156 0.15686275 0.15686275 0.17647059
v 1133.98563569 877.50000000 194.44958156 0.15686275 0.15686275 0.17647059
v 1101.64216362 1122.50000000 133.93920133 0.15686275 0.15686275 0.17647059
v 1101.64216362 877.50000000 133.93920133 0.15686275 0.15686275 0.17647059
v 1081.72515186 1122.50000000 68.28161271 0.15686275 0.15686275 0.17647059
v 1081.72515186 877.50000000 68.28161271 0.15686275 0.15686275 0.17647059
v 1075.00000000 1122.50000000 0.00000000 0.15686275 0.15686275 0.17647059
v 1075.00000000 877.50000000 0.00000000 0.15686275 0.15686275 0.17647059
v 1081.72515186 1122.50000000 -68.28161271 0.15686275 0.15686275 0.17647059
v 1081.72515186 877.50000000 -68.28161271 0.15686275 0.15686275 0.17647059
v 1101.64216362 1122.50000000 -133.93920133 0.15686275 0.15686275 0.17647059
v 1101.64216362 877.50000000 -133.93920133 0.15686275 0.15686275 0.17647059
v 1133.98563569 1122.50000000 -194.44958156 0.15686275 0.15686275 0.17647059
v 1133.98563569 877.50000000 -194.44958156 0.15686275 0.15686275 0.17647059
v 1177.51262658 1122.50000000 -247.48737342 0.15686275 0.15686275 0.17647059
v 1177.51262658 877.50000000 -247.48737342 0.15686275 0.15686275 0.17647059
v 1230.55041844 1122.50000000 -291.01436431 0.15686275 0.15686275 0.17647059
v 1230.55041844 877.50000000 -291.01436431 0.15686275 0.15686275 0.17647059
v 1291.06079867 1122.50000000 -323.35783638 0.15686275 0.15686275 0.17647059
v 1291.06079867 877.50000000 -323.35783638 0.15686275 0.15686275 0.17647059
v 1356.71838729 1122.50000000 -343.27484814 0.15686275 0.15686275 0.17647059
v 1356.71838729 877.50000000 -343.27484814 0.15686275 0.15686275 0.17647059
v 1425.00000000 1122.50000000 -350.00000000 0.15686275 0.15686275 0.17647059
v 1425.00000000 877.50000000 -350.00000000 0.15686275 0.15686275 0.17647059
v 1493.28161271 1122.50000000 -343.27484814 0.15686275 0.15686275 0.17647059
v 1493.28161271 877.50000000 -343.27484814 0.15686275 0.15686275 0.17647059
v 1558.93920133 1122.50000000 -323.35783638 0.15686275 0.15686275 0.17647059
v 1558.93920133 877.50000000 -323.35783638 0.15686275 0.15686275 0.17647059
v 1619.44958156 1122.50000000 -291.01436431 0.15686275 0.15686275 0.17647059
v 1619.44958156 877.50000000 -291.01436431 0.15686275 0.15686275 0.17647059
v 1672.48737342 1122.50000000 -247.48737342 0.15686275 0.15686275 0.17647059
v 1672.48737342 877.50000000 -247.48737342 0.15686275 0.15686275 0.17647059
v 1716.01436431 1122.50000000 -194.44958156 0.15686275 0.15686275 0.17647059
v 1716.01436431 877.50000000 -194.44958156 0.15686275 0.15686275 0.17647059
v 1748.35783638 1122.50000000 -133.93920133 0.15686275 0.15686275 0.17647059
v 1748.35783638 877.50000000 -133.93920133 0.15686275 0.15686275 0.17647059
v 1768.27484814 1122.50000000 -68.28161271 0.15686275 0.15686275 0.17647059
v 1768.27484814 877.50000000 -68.28161271 0.15686275 0.15686275 0.17647059
f 388 387 391
f 388 391 389
f 389 391 392
f 389 392 390
f 391 387 393
f 391 393 392
f 392 393 394
f 392 394 390
f 393 387 395
f 393 395 394
f 394 395 396
f 394 396 390
f 395 387 397
f 395 397 396
f 396 397 398
f 396 398 390
f 397 387 399
f 397 399 398
f 398 399 400
f 398 400 390
f 399 387 401
f 399 401 400
f 400 401 402
f 400 402 390
f 401 387 403
f 401 403 402
f 402 403 404
f 402 404 390
f 403 387 405
f 403 405 404
f 404 405 406
f 404 406 390
f 405 387 407
f 405 407 406
f 406 407 408
f 406 408 390
f 407 387 409
f 407 409 408
f 408 409 410
f 408 410 390
f 409 387 411
f 409 411 410
f 410 411 412
f 410 412 390
f 411 387 413
f 411 413 412
f 412 413 414
f 412 414 390
f 413 387 415
f 413 415 414
f 414 415 416
f 414 416 390
f 415 387 417
f 415 417 416
f 416 417 418
f 416 418 390
f 417 387 419
f 417 419 418
f 418 419 420
f 418 420 390
f 419 387 421
f 419 421 420
f 420 421 422
f 420 422 390
f 421 387 423
f 421 423 422
f 422 423 424
f 422 424 390
f 423 387 425
f 423 425 424
f 424 425 426
f 424 426 390
f 425 387 427
f 425 427 426
f 426 427 428
f 426 428 390
f 427 387 429
f 427 429 428
f 428 429 430
f 428 430 390
f 429 387 431
f 429 431 430
f 430 431 432
f 430 432 390
f 431 387 433
f 431 433 432
f 432 433 434
f 432 434 390
f 433 387 435
f 433 435 434
f 434 435 436
f 434 436 390
f 435 387 437
f 435 437 436
f 436 437 438
f 436 438 390
f 437 387 439
f 437 439 438
f 438 439 440
f 438 440 390
f 439 387 441
f 439 441 440
f 440 441 442
f 440 442 390
f 441 387 443
f 441 443 442
f 442 443 444
f 442 444 390
f 443 387 445
f 443 445 444
f 444 445 446
f 444 446 390
f 445 387 447
f 445 447 446
f 446 447 448
f 446 448 390
f 447 387 449
f 447 449 448
f 448 449 450
f 448 450 390
f 449 387 451
f 449 451 450
f 450 451 452
f 450 452 390
f 451 387 388
f 451 388 452
f 452 388 389
f 452 389 390

o geometry_13
v -20.00000000 -915.00000000 100.00000000 0.90196078 0.11764706 0.11764706
v -20.00000000 -915.00000000 110.00000000 0.90196078 0.11764706 0.11764706
v -20.00000000 -900.00000000 100.00000000 0.90196078 0.11764706 0.11764706
v -20.00000000 -900.00000000 110.00000000 0.90196078 0.11764706 0.11764706
v 20.00000000 -915.00000000 100.00000000 0.90196078 0.11764706 0.11764706
v 20.00000000 -915.00000000 110.00000000 0.90196078 0.11764706 0.11764706
v 20.00000000 -900.00000000 100.00000000 0.90196078 0.11764706 0.11764706
v 20.00000000 -900.00000000 110.00000000 0.90196078 0.11764706 0.11764706
f 454 456 453
f 457 454 453
f 453 456 455
f 455 457 453
f 454 460 456
f 458 454 457
f 458 460 454
f 456 460 455
f 459 457 455
f 455 460 459
f 459 458 457
f 460 458 459

o geometry_14
v -20.00000000 900.00000000 100.00000000 0.90196078 0.11764706 0.11764706
v -20.00000000 900.00000000 110.00000000 0.90196078 0.11764706 0.11764706
v -20.00000000 915.00000000 100.00000000 0.90196078 0.11764706 0.11764706
v -20.00000000 915.00000000 110.00000000 0.90196078 0.11764706 0.11764706
v 20.00000000 900.00000000 100.00000000 0.90196078 0.11764706 0.11764706
v 20.00000000 900.00000000 110.00000000 0.90196078 0.11764706 0.11764706
v 20.00000000 915.00000000 100.00000000 0.90196078 0.11764706 0.11764706
v 20.00000000 915.00000000 110.00000000 0.90196078 0.11764706 0.11764706
f 462 464 461
f 465 462 461
f 461 464 463
f 463 465 461
f 462 468 464
f 466 462 465
f 466 468 462
f 464 468 463
f 467 465 463
f 463 468 467
f 467 466 465
f 468 466 467

o geometry_15
v -150.00000000 -1400.00000000 0.00000000 0.11764706 0.11764706 0.13725490
v -150.00000000 -1400.00000000 120.00000000 0.11764706 0.11764706 0.13725490
v -150.00000000 -1200.00000000 0.00000000 0.11764706 0.11764706 0.13725490
v -150.00000000 -1200.00000000 120.00000000 0.11764706 0.11764706 0.13725490
v 150.00000000 -1400.00000000 0.00000000 0.11764706 0.11764706 0.13725490
v 150.00000000 -1400.00000000 120.00000000 0.11764706 0.11764706 0.13725490
v 150.00000000 -1200.00000000 0.00000000 0.11764706 0.11764706 0.13725490
v 150.00000000 -1200.00000000 120.00000000 0.11764706 0.11764706 0.13725490
f 470 472 469
f 473 470 469
f 469 472 471
f 471 473 469
f 470 476 472
f 474 470 473
f 474 476 470
f 472 476 471
f 475 473 471
f 471 476 475
f 475 474 473
f 476 474 475

